# xmcd
#
# Track frame offsets:
#	150
#	12527
#	36235
#	50714
#	69124
#	79215
#	91528
#	99217
#	116090
#	128861
#	144710
#	166287
#	175939
#	185213
#	202614
#	216566
#	225716
#	244964
#	260260
#	274407
#	286446
#	299960
#
# Disc length: 4275 seconds
#
# Revision: 1
# Processed by: cddbd v1.5.1PL0 Copyright (c) Steve Scherf et al.
# Submitted via: CDex 1.50Beta5
#
DISCID=5510b116
DTITLE=Lyrical@Musik - Watermelon
DYEAR=1900
DGENRE=
TTITLE0=NYA/夏とすいかと女の子
TTITLE1=うにくす/Voyager
TTITLE2=kutsuka/砂浜の涙
TTITLE3=PLAGAREC/2000Beat
TTITLE4=Dozest/コンニチ
TTITLE5=M.S/Kurzschluss
TTITLE6=OSATOH/すいかな いちにち
TTITLE7=Nakachan/Pass through the seafront
TTITLE8=NYA/South Beach
TTITLE9=YET11/The Spiral Seven
TTITLE10=Ebi/milestone〜道標〜
TTITLE11=NT-3/ShuriKen
TTITLE12=STEVE/まどろみのなかで・・・
TTITLE13=M.S/Kirakyo/Fine, Fine Day.
TTITLE14=Necktie/冷たい雨にうたれても
TTITLE15=嵩夜あや/Naughty Fly
TTITLE16=OSATOH/URBAN CATS
TTITLE17=Suebashi/Eternal Flappers
TTITLE18=kutsuka/Uncontrollable Emotion
TTITLE19=NYA/Seaside Drive
TTITLE20=CHEMOOL/ひとりぼっちの夏休み
TTITLE21=かんな/雨に濡れる森の贖罪
EXTD=
EXTT0=
EXTT1=
EXTT2=
EXTT3=
EXTT4=
EXTT5=
EXTT6=
EXTT7=
EXTT8=
EXTT9=
EXTT10=
EXTT11=
EXTT12=
EXTT13=
EXTT14=
EXTT15=
EXTT16=
EXTT17=
EXTT18=
EXTT19=
EXTT20=
EXTT21=
PLAYORDER=
